<?xml version="1.0" encoding="UTF-8" standalone="no"?>
<!-- Created with Inkscape (http://www.inkscape.org/) -->

<svg
   xmlns:dc="http://purl.org/dc/elements/1.1/"
   xmlns:cc="http://creativecommons.org/ns#"
   xmlns:rdf="http://www.w3.org/1999/02/22-rdf-syntax-ns#"
   xmlns:svg="http://www.w3.org/2000/svg"
   xmlns="http://www.w3.org/2000/svg"
   xmlns:sodipodi="http://sodipodi.sourceforge.net/DTD/sodipodi-0.dtd"
   xmlns:inkscape="http://www.inkscape.org/namespaces/inkscape"
   width="300"
   height="300"
   viewBox="0 0 79.374996 79.375002"
   version="1.1"
   id="svg8"
   inkscape:version="0.92.3 (2405546, 2018-03-11)"
   sodipodi:docname="bw-pipeline.svg">
  <defs
     id="defs2" />
  <sodipodi:namedview
     id="base"
     pagecolor="#ffffff"
     bordercolor="#666666"
     borderopacity="1.0"
     inkscape:pageopacity="0.0"
     inkscape:pageshadow="2"
     inkscape:zoom="1"
     inkscape:cx="140.5"
     inkscape:cy="40"
     inkscape:document-units="mm"
     inkscape:current-layer="layer1"
     showgrid="false"
     units="px"
     inkscape:window-width="2250"
     inkscape:window-height="1500"
     inkscape:window-x="294"
     inkscape:window-y="294"
     inkscape:window-maximized="0" />
  <metadata
     id="metadata5">
    <rdf:RDF>
      <cc:Work
         rdf:about="">
        <dc:format>image/svg+xml</dc:format>
        <dc:type
           rdf:resource="http://purl.org/dc/dcmitype/StillImage" />
        <dc:title></dc:title>
      </cc:Work>
    </rdf:RDF>
  </metadata>
  <g
     inkscape:label="Layer 1"
     inkscape:groupmode="layer"
     id="layer1"
     transform="translate(0,-217.62499)">
    <ellipse
       style="opacity:1;fill:#000000;fill-opacity:1;stroke:none;stroke-width:0.24950738;stroke-miterlimit:4;stroke-dasharray:none;stroke-opacity:1;paint-order:markers stroke fill"
       id="path83688"
       cx="40.40173"
       cy="257.57706"
       rx="34.395832"
       ry="33.469788" />
    <g
       id="use149020-4"
       style="fill:#ffffff"
       transform="matrix(3.1035713,0,0,3.1823791,24.883871,232.11804)">
      <title
         id="title75987">repo-forked</title>
      <path
         inkscape:connector-curvature="0"
         id="path75989"
         d="M 8,1 C 6.89,1 6,1.89 6,3 6,3.73 6.41,4.38 7,4.72 V 6 L 5,8 3,6 V 4.72 C 3.59,4.38 4,3.74 4,3 4,1.89 3.11,1 2,1 0.89,1 0,1.89 0,3 0,3.73 0.41,4.38 1,4.72 V 6.5 l 3,3 v 1.78 C 3.41,11.62 3,12.26 3,13 3,14.11 3.89,15 5,15 6.11,15 7,14.11 7,13 7,12.27 6.59,11.62 6,11.28 V 9.5 l 3,-3 V 4.72 C 9.59,4.38 10,3.74 10,3 10,1.89 9.11,1 8,1 Z M 2,4.2 C 1.34,4.2 0.8,3.65 0.8,3 0.8,2.35 1.35,1.8 2,1.8 2.65,1.8 3.2,2.35 3.2,3 3.2,3.65 2.65,4.2 2,4.2 Z m 3,10 c -0.66,0 -1.2,-0.55 -1.2,-1.2 0,-0.65 0.55,-1.2 1.2,-1.2 0.65,0 1.2,0.55 1.2,1.2 0,0.65 -0.55,1.2 -1.2,1.2 z M 8,4.2 C 7.34,4.2 6.8,3.65 6.8,3 6.8,2.35 7.35,1.8 8,1.8 8.65,1.8 9.2,2.35 9.2,3 9.2,3.65 8.65,4.2 8,4.2 Z"
         style="fill:#ffffff" />
    </g>
  </g>
</svg>
