<?xml version="1.0" standalone="no"?>
<!DOCTYPE svg PUBLIC "-//W3C//DTD SVG 20010904//EN"
 "http://www.w3.org/TR/2001/REC-SVG-20010904/DTD/svg10.dtd">
<svg version="1.0" xmlns="http://www.w3.org/2000/svg"
 width="1500.000000pt" height="1500.000000pt" viewBox="0 0 1500.000000 1500.000000"
 preserveAspectRatio="xMidYMid meet">
<metadata>
Created by potrace 1.11, written by Peter Selinger 2001-2013
</metadata>
<g transform="translate(0.000000,1500.000000) scale(0.100000,-0.100000)"
fill="#000000" stroke="none">
<path d="M7996 12703 c13 -43 115 -368 227 -723 l204 -645 64 -11 c127 -21
205 -60 277 -138 76 -82 110 -161 121 -279 l6 -72 1063 -413 1062 -414 60 55
c108 101 238 141 376 118 42 -7 79 -10 82 -6 28 28 979 1401 974 1407 -4 3
-335 92 -737 198 -401 106 -1420 374 -2264 596 -844 222 -1536 404 -1537 404
-1 0 8 -35 22 -77z"/>
<path d="M7235 12594 c-264 -96 -973 -353 -1575 -571 -602 -217 -1098 -398
-1102 -402 -3 -3 78 -67 180 -142 1007 -733 1589 -1156 1600 -1163 8 -5 31 9
63 38 286 257 761 258 1045 2 l50 -44 271 203 271 204 -15 52 c-10 35 -14 79
-11 138 6 121 46 208 138 294 l66 63 -237 749 c-157 500 -241 751 -250 752 -8
0 -230 -77 -494 -173z"/>
<path d="M3740 10784 c-322 -395 -590 -725 -597 -734 -11 -15 55 -44 669 -288
l681 -271 58 54 c138 127 329 157 498 78 53 -25 137 -99 177 -155 l19 -27 400
100 c220 55 417 104 438 110 l37 10 0 80 c0 98 22 208 62 312 16 43 28 80 26
81 -1 2 -253 185 -558 408 -305 222 -723 527 -929 677 -206 150 -379 275 -385
277 -6 2 -274 -318 -596 -712z"/>
<path d="M12172 10684 l-452 -646 31 -44 c30 -45 69 -142 69 -175 0 -10 5 -21
11 -24 6 -4 168 -33 360 -64 l350 -57 21 39 c28 56 115 140 177 171 38 20 51
31 47 44 -2 9 -37 329 -78 709 -40 381 -75 693 -78 693 -3 0 -209 -291 -458
-646z"/>
<path d="M12876 11209 c7 -51 134 -1241 134 -1260 0 -11 12 -19 34 -23 19 -4
66 -22 105 -42 120 -60 206 -174 234 -314 l13 -64 54 -13 c313 -74 790 -183
799 -183 6 0 11 14 11 31 0 24 -69 123 -350 502 -193 260 -504 679 -691 932
-188 253 -343 462 -345 464 -2 2 -1 -12 2 -30z"/>
<path d="M8762 10580 c-37 -41 -82 -70 -180 -116 -2 -1 6 -243 17 -537 12
-294 21 -553 21 -576 0 -31 5 -43 18 -47 9 -3 49 -21 89 -40 166 -79 266 -273
236 -455 -6 -35 -14 -71 -17 -79 -4 -11 95 -86 354 -270 197 -140 369 -261
382 -269 21 -12 28 -11 73 18 28 18 75 39 105 48 63 19 186 21 245 4 34 -9 42
-8 56 7 9 9 210 284 447 610 l431 593 -24 35 c-38 56 -65 141 -70 217 -2 44
-9 73 -17 78 -17 9 -2088 817 -2113 824 -5 2 -29 -19 -53 -45z"/>
<path d="M7903 10339 l-270 -201 34 -84 c68 -168 80 -356 34 -519 -11 -38 -18
-71 -17 -72 6 -7 516 -283 522 -283 3 0 26 18 51 39 24 22 66 48 91 57 26 10
48 18 50 20 3 1 -35 1044 -41 1123 -2 31 -6 35 -63 55 -33 12 -75 32 -91 44
l-31 22 -269 -201z"/>
<path d="M3164 9728 c159 -420 810 -2107 819 -2120 11 -15 943 -838 950 -838
6 0 -151 2009 -158 2020 -3 5 -20 12 -38 15 -115 25 -248 146 -294 267 -9 24
-19 81 -22 128 l-6 85 -634 252 c-349 139 -636 253 -637 253 -2 0 7 -28 20
-62z"/>
<path d="M11768 9527 c-31 -63 -120 -144 -191 -178 -91 -42 -173 -55 -256 -39
-36 7 -76 13 -88 14 -18 1 -97 -102 -440 -574 -230 -316 -428 -589 -440 -605
l-21 -30 34 -55 c59 -97 78 -220 51 -328 -12 -46 -12 -53 2 -65 12 -11 905
-647 1207 -860 l41 -29 37 26 c77 52 143 70 251 70 81 0 110 -5 155 -23 l55
-23 193 198 c106 110 249 258 317 330 l125 131 -27 59 c-25 53 -28 70 -28 170
0 107 1 112 38 187 42 86 111 160 182 198 25 13 45 29 45 34 0 26 -120 907
-125 914 -2 5 -22 11 -43 14 -145 24 -308 193 -329 342 -3 25 -8 45 -12 45 -3
0 -165 27 -359 58 l-353 58 -21 -39z"/>
<path d="M5715 9332 l-420 -107 -7 -60 c-16 -131 -129 -284 -242 -331 -25 -11
-46 -25 -46 -32 0 -16 159 -2051 162 -2077 2 -11 281 497 645 1174 l642 1194
-65 60 c-70 64 -136 151 -178 235 -20 40 -31 52 -49 51 -12 0 -211 -49 -442
-107z"/>
<path d="M13330 9270 c0 -19 -121 -138 -165 -161 -30 -16 -45 -30 -45 -44 0
-20 105 -824 115 -881 5 -28 10 -32 45 -38 22 -3 60 -16 84 -28 l45 -21 423
414 423 414 3 72 c3 68 2 73 -20 78 -13 3 -99 23 -193 45 -93 21 -286 66 -428
100 -271 63 -287 66 -287 50z"/>
<path d="M7520 9208 c-100 -112 -238 -198 -387 -240 -107 -31 -303 -31 -413 0
-41 11 -75 20 -76 19 -9 -12 -1344 -2500 -1342 -2502 2 -1 326 -181 721 -400
l719 -397 691 111 c381 61 702 114 713 116 16 4 23 15 28 43 18 116 128 254
240 303 52 23 56 26 56 59 0 19 -9 442 -20 940 -11 498 -20 967 -20 1043 0
122 -2 138 -17 143 -61 20 -146 70 -187 111 -100 98 -139 197 -135 337 l3 90
-179 98 c-99 55 -216 119 -260 143 l-80 43 -55 -60z"/>
<path d="M13915 8269 c-187 -183 -339 -337 -338 -343 1 -6 12 -38 24 -71 17
-50 20 -77 17 -161 -3 -90 -7 -107 -38 -170 -41 -83 -116 -162 -191 -199 -30
-15 -55 -28 -57 -30 -3 -2 73 -970 83 -1061 l6 -51 54 -17 c30 -9 77 -32 106
-51 28 -19 53 -35 56 -35 7 0 596 352 611 365 9 8 12 233 10 1083 l-3 1072
-340 -331z"/>
<path d="M8768 8505 c-20 -13 -54 -32 -77 -41 -40 -16 -41 -18 -41 -63 0 -25
9 -507 21 -1071 15 -727 25 -1027 33 -1032 6 -4 19 -8 28 -8 12 0 168 212 467
631 l449 630 -33 51 c-62 94 -72 163 -53 370 3 25 -27 48 -370 292 -205 146
-376 266 -380 266 -4 0 -24 -11 -44 -25z"/>
<path d="M10226 7464 c-89 -61 -246 -86 -351 -56 -34 10 -42 9 -56 -6 -9 -9
-212 -292 -451 -628 l-435 -612 24 -30 c13 -17 36 -57 51 -89 24 -51 27 -71
29 -173 l2 -114 471 -259 471 -259 41 37 c85 78 225 116 346 95 37 -6 91 -22
121 -35 l53 -25 43 38 c24 20 252 228 507 461 l464 423 -23 67 c-25 74 -29
176 -10 251 l12 45 -628 448 c-345 246 -631 447 -635 447 -4 0 -25 -12 -46
-26z"/>
<path d="M12648 6999 l-317 -328 26 -58 c23 -49 28 -75 31 -164 l4 -105 302
-151 301 -151 44 39 c23 21 68 51 98 66 l55 27 -5 60 c-4 34 -22 268 -42 521
-40 514 -41 525 -58 525 -7 0 -37 11 -67 23 l-55 23 -317 -327z"/>
<path d="M12255 6114 c-95 -80 -185 -115 -300 -116 -77 0 -117 9 -221 52 l-31
13 -501 -458 c-276 -251 -502 -462 -502 -469 1 -6 9 -36 20 -66 24 -67 26
-186 5 -256 -11 -38 -12 -51 -2 -60 6 -6 91 -56 187 -111 96 -56 321 -186 500
-289 179 -103 332 -187 340 -186 13 1 204 79 1178 485 l294 122 -6 50 c-3 28
-6 150 -6 273 0 203 -2 223 -17 228 -110 36 -214 131 -265 241 -29 61 -32 77
-33 168 l0 100 -300 152 c-165 84 -302 152 -305 152 -3 0 -18 -11 -35 -25z"/>
<path d="M8902 5540 c-13 -11 -22 -26 -20 -33 2 -8 224 -564 493 -1235 l490
-1222 569 0 c537 0 568 1 563 18 -2 9 -138 330 -302 712 -163 382 -299 701
-302 709 -4 9 -19 12 -51 8 -67 -7 -166 10 -228 39 -70 33 -162 118 -197 182
-42 77 -60 164 -54 252 l6 75 -465 255 c-255 140 -468 256 -472 257 -4 1 -17
-6 -30 -17z"/>
<path d="M7523 4139 c-225 -29 -415 -137 -514 -290 -103 -161 -116 -396 -33
-568 34 -68 145 -186 218 -229 81 -50 215 -105 430 -178 318 -109 382 -149
393 -248 17 -145 -80 -231 -273 -243 -85 -6 -161 10 -236 48 -60 31 -164 135
-214 215 -25 41 -47 74 -49 74 -7 0 -397 -149 -402 -154 -7 -7 16 -73 50 -141
116 -233 312 -393 556 -456 103 -27 265 -35 387 -20 438 54 694 347 646 739
-16 130 -65 232 -156 324 -116 117 -229 176 -566 293 -186 64 -316 122 -343
152 -39 44 -38 119 0 172 44 60 176 93 294 73 117 -20 196 -73 254 -171 24
-40 34 -49 50 -45 11 3 104 33 208 67 211 68 195 52 153 157 -47 120 -148 238
-272 320 -149 97 -363 138 -581 109z"/>
<path d="M697 4121 c-418 -92 -687 -517 -687 -1087 0 -372 109 -676 312 -870
158 -151 327 -214 578 -214 188 0 315 35 448 124 78 52 181 156 239 241 50 74
106 185 98 193 -3 3 -97 40 -209 82 l-203 77 -58 -79 c-126 -170 -251 -226
-402 -179 -159 48 -265 210 -308 470 -33 193 -2 434 74 595 69 144 179 219
321 220 137 0 226 -51 333 -193 l44 -58 199 89 c109 49 203 93 208 98 12 12
-54 129 -115 206 -97 122 -260 232 -409 274 -110 32 -342 37 -463 11z"/>
<path d="M2020 3045 l0 -1065 219 0 220 0 3 398 c4 437 7 460 69 535 53 64
165 98 262 77 79 -16 117 -45 152 -115 l30 -60 3 -417 3 -418 225 0 226 0 -5
497 c-5 540 -6 559 -64 681 -51 109 -184 210 -323 247 -31 8 -99 15 -155 15
-168 0 -274 -36 -373 -125 l-52 -47 0 431 0 431 -220 0 -220 0 0 -1065z"/>
<path d="M3870 3046 l0 -1066 230 0 230 0 0 375 0 375 207 -2 206 -3 191 -372
191 -373 258 0 c141 0 257 4 257 9 0 4 -66 143 -146 307 -81 164 -168 345
-194 401 l-49 103 62 32 c142 75 264 253 308 446 17 79 12 267 -11 357 -46
184 -155 329 -300 398 -149 71 -136 70 -822 74 l-618 4 0 -1065z m1132 614
c49 -14 93 -52 121 -104 18 -34 22 -57 22 -136 0 -102 -16 -150 -67 -197 -52
-49 -87 -53 -429 -53 l-319 0 0 250 0 250 318 0 c187 0 332 -4 354 -10z"/>
<path d="M6030 3045 l0 -1065 230 0 230 0 0 1065 0 1065 -230 0 -230 0 0
-1065z"/>
</g>
</svg>
